<svg xmlns="http://www.w3.org/2000/svg"  viewBox="0 0 100 100" width="100px" height="100px" baseProfile="basic"><path fill="#c7ede6" d="M87.215,56.71C88.35,54.555,89,52.105,89,49.5c0-6.621-4.159-12.257-10.001-14.478	C78.999,35.015,79,35.008,79,35c0-11.598-9.402-21-21-21c-9.784,0-17.981,6.701-20.313,15.757C36.211,29.272,34.638,29,33,29	c-7.692,0-14.023,5.793-14.89,13.252C12.906,43.353,9,47.969,9,53.5C9,59.851,14.149,65,20.5,65c0.177,0,0.352-0.012,0.526-0.022	C21.022,65.153,21,65.324,21,65.5C21,76.822,30.178,86,41.5,86c6.437,0,12.175-2.972,15.934-7.614C59.612,80.611,62.64,82,66,82	c4.65,0,8.674-2.65,10.666-6.518C77.718,75.817,78.837,76,80,76c6.075,0,11-4.925,11-11C91,61.689,89.53,58.727,87.215,56.71z"/><path fill="#fff" d="M65.625,18h-10c-0.276,0-0.5-0.224-0.5-0.5s0.224-0.5,0.5-0.5h10c0.276,0,0.5,0.224,0.5,0.5 S65.901,18,65.625,18z"/><path fill="#fff" d="M69.625,18h-2c-0.276,0-0.5-0.224-0.5-0.5s0.224-0.5,0.5-0.5h2c0.276,0,0.5,0.224,0.5,0.5 S69.901,18,69.625,18z"/><path fill="#fff" d="M74.625,20h-10c-0.276,0-0.5-0.224-0.5-0.5s0.224-0.5,0.5-0.5h10c0.276,0,0.5,0.224,0.5,0.5 S74.902,20,74.625,20z"/><path fill="#fff" d="M62.625,20h-1c-0.276,0-0.5-0.224-0.5-0.5s0.224-0.5,0.5-0.5h1c0.276,0,0.5,0.224,0.5,0.5 S62.901,20,62.625,20z"/><path fill="#fff" d="M59.5,20h-1.875c-0.276,0-0.5-0.224-0.5-0.5s0.224-0.5,0.5-0.5H59.5c0.276,0,0.5,0.224,0.5,0.5 S59.776,20,59.5,20z"/><path fill="#fff" d="M68.625,16h-5c-0.276,0-0.5-0.224-0.5-0.5s0.224-0.5,0.5-0.5h5c0.276,0,0.5,0.224,0.5,0.5 S68.902,16,68.625,16z"/><path fill="#fff" d="M65.625,22h-2c-0.276,0-0.5-0.224-0.5-0.5s0.224-0.5,0.5-0.5h2c0.276,0,0.5,0.224,0.5,0.5 S65.901,22,65.625,22z"/><path fill="#fff" d="M35.53,81h-9.905c-0.276,0-0.5-0.224-0.5-0.5s0.224-0.5,0.5-0.5h9.905c0.276,0,0.5,0.224,0.5,0.5 S35.807,81,35.53,81z"/><path fill="#fff" d="M38.625,81h-1c-0.276,0-0.5-0.224-0.5-0.5s0.224-0.5,0.5-0.5h1c0.276,0,0.5,0.224,0.5,0.5 S38.902,81,38.625,81z"/><path fill="#fff" d="M43.616,83h-8.991c-0.276,0-0.5-0.224-0.5-0.5s0.224-0.5,0.5-0.5h8.991c0.276,0,0.5,0.224,0.5,0.5 S43.892,83,43.616,83z"/><path fill="#fff" d="M32.625,83h-1c-0.276,0-0.5-0.224-0.5-0.5s0.224-0.5,0.5-0.5h1c0.276,0,0.5,0.224,0.5,0.5 S32.902,83,32.625,83z"/><path fill="#fff" d="M29.625,83h-2c-0.276,0-0.5-0.224-0.5-0.5s0.224-0.5,0.5-0.5h2c0.276,0,0.5,0.224,0.5,0.5 S29.902,83,29.625,83z"/><path fill="#fff" d="M35.625,85h-2c-0.276,0-0.5-0.224-0.5-0.5s0.224-0.5,0.5-0.5h2c0.276,0,0.5,0.224,0.5,0.5 S35.901,85,35.625,85z"/><path fill="#fff" d="M38.625,76c-0.177,0-0.823,0-1,0c-0.276,0-0.5,0.224-0.5,0.5s0.224,0.5,0.5,0.5c0.177,0,0.823,0,1,0 c0.276,0,0.5-0.224,0.5-0.5S38.901,76,38.625,76z"/><path fill="#fff" d="M38.625,78c-0.177,0-4.823,0-5,0c-0.276,0-0.5,0.224-0.5,0.5s0.224,0.5,0.5,0.5c0.177,0,4.823,0,5,0 c0.276,0,0.5-0.224,0.5-0.5S38.901,78,38.625,78z"/><path fill="#fff" d="M43.625,80c-0.177,0-2.823,0-3,0c-0.276,0-0.5,0.224-0.5,0.5s0.224,0.5,0.5,0.5c0.177,0,2.823,0,3,0 c0.276,0,0.5-0.224,0.5-0.5S43.901,80,43.625,80z"/><g><path fill="#fdfcef" d="M19.143,46.219c0,0-1.567,0-3.5,0s-3.5-1.567-3.5-3.5c0-1.781,1.335-3.234,3.055-3.455 c-0.028-0.179-0.055-0.358-0.055-0.545c0-1.933,1.567-3.5,3.5-3.5c1.032,0,1.95,0.455,2.59,1.165 c0.384-1.808,1.987-3.165,3.91-3.165c2.209,0,4,1.791,4,4c0,0.191-0.03,0.374-0.056,0.558c0.428-0.344,0.965-0.558,1.556-0.558 c1.228,0,2.245,0.887,2.455,2.055c0.179-0.028,0.358-0.055,0.545-0.055c1.933,0,3.5,1.567,3.5,3.5s-1.567,3.5-3.5,3.5s-7.5,0-7.5,0 v0.5h-7V46.219z"/><path fill="#472b29" d="M17.393,41.719c0.138,0,0.25-0.112,0.25-0.25c0-1.223-0.995-2.218-2.218-2.218 c-0.034,0.009-0.737-0.001-1.244,0.136c-0.133,0.036-0.212,0.173-0.176,0.306c0.036,0.134,0.173,0.213,0.306,0.176 c0.444-0.12,1.1-0.12,1.113-0.118c0.948,0,1.719,0.771,1.719,1.718C17.143,41.607,17.254,41.719,17.393,41.719z"/><circle cx="24.143" cy="46.219" r=".5" fill="#472b29"/><path fill="#472b29" d="M15.643,46.719h3.5c0.276,0,0.5-0.224,0.5-0.5s-0.224-0.5-0.5-0.5h-3.5c-1.654,0-3-1.346-3-3 c0-1.496,1.125-2.768,2.618-2.959c0.134-0.018,0.255-0.088,0.336-0.196s0.115-0.244,0.094-0.377 c-0.024-0.153-0.049-0.308-0.049-0.468c0-1.654,1.346-3,3-3c0.85,0,1.638,0.355,2.219,1c0.125,0.139,0.321,0.198,0.5,0.148 c0.182-0.049,0.321-0.195,0.36-0.379c0.341-1.604,1.779-2.769,3.42-2.769c1.93,0,3.5,1.57,3.5,3.5c0,0.143-0.021,0.28-0.041,0.418 c-0.029,0.203,0.063,0.438,0.242,0.54c0.179,0.102,0.396,0.118,0.556-0.01c0.365-0.293,0.794-0.448,1.243-0.448 c0.966,0,1.792,0.691,1.963,1.644c0.048,0.267,0.296,0.446,0.569,0.405c0.153-0.024,0.308-0.049,0.468-0.049c1.654,0,3,1.346,3,3 s-1.346,3-3,3h-7.5c-0.276,0-0.5,0.224-0.5,0.5s0.224,0.5,0.5,0.5h7.5c2.206,0,4-1.794,4-4s-1.794-4-4-4 c-0.059,0-0.116,0.002-0.174,0.006c-0.414-1.186-1.537-2.006-2.826-2.006c-0.349,0-0.689,0.061-1.011,0.18 c-0.165-2.333-2.115-4.18-4.489-4.18c-1.831,0-3.466,1.127-4.153,2.774c-0.68-0.499-1.502-0.774-2.347-0.774c-2.206,0-4,1.794-4,4 c0,0.048,0.001,0.095,0.004,0.142c-1.743,0.448-3.004,2.027-3.004,3.858C11.643,44.925,13.437,46.719,15.643,46.719z"/><path fill="#472b29" d="M21.143,45.719c0.159,0,0.841,0,1,0c0.276,0,0.5,0.224,0.5,0.5s-0.224,0.5-0.5,0.5 c-0.159,0-0.841,0-1,0c-0.276,0-0.5-0.224-0.5-0.5S20.867,45.719,21.143,45.719z"/></g><g><path fill="#4a5397" d="M68.25,71.375h-28.5c-3.935,0-7.125-3.19-7.125-7.125v-28.5c0-3.935,3.19-7.125,7.125-7.125h28.5 c3.935,0,7.125,3.19,7.125,7.125v28.5C75.375,68.185,72.185,71.375,68.25,71.375z"/><path fill="#472b29" d="M68.25,72.075h-28.5c-4.314,0-7.825-3.511-7.825-7.825v-28.5c0-4.314,3.511-7.825,7.825-7.825h28.5 c4.314,0,7.825,3.511,7.825,7.825v28.5C76.075,68.564,72.564,72.075,68.25,72.075z M39.75,29.325c-3.543,0-6.425,2.882-6.425,6.425 v28.5c0,3.543,2.882,6.425,6.425,6.425h28.5c3.543,0,6.425-2.882,6.425-6.425v-28.5c0-3.543-2.882-6.425-6.425-6.425H39.75z"/></g><path fill="#f47c22" d="M57.497,45.496c0.661-0.616,1.07-1.459,1.045-2.601c-2.344,0.513-2.857-1.685-2.857-1.685	s1.026,0.293,2.198-0.22c1.172-0.513,1.831,0.22,1.831,0.22s0.806-0.806,3.443-0.073c2.637,0.733,1.978,1.978,2.417,2.491	c0.439,0.513,2.857,0.733,2.857,0.733c0.293,2.637-1.9,2.687-1.9,2.687h-3.589c-2.344,1.978-0.664,4.052,0.435,4.052	s5.054-0.366,5.054-0.366c2.124,1.685,0.44,3.443-0.586,3.516c-1.026,0.073-1.465-1.319-1.465-1.319l-6.373,2.198l-1.685-1.685	c0,0-0.733,1.392-3.15,1.612c-2.417,0.22-4.761-0.879-4.761-0.879c-3.055,4.52-8.497,2.051-8.497,2.051	c-1.538,3.37-2.679,3.289-3.254,3.289c-0.697,0-2.167,0.153-2.387-1.312c-0.22-1.465,1.538-0.952,2.051-1.538	c0.513-0.586,1.32-3.056,1.32-3.056c0.321,0.006,0.621,0.001,0.902-0.012l1.313-0.139c2.237-0.393,2.691-1.407,2.691-1.407	c-0.806-3.443,1.172-4.835,1.172-4.835c-5.201-3.736-1.978-8.424-1.978-8.424c0.165,4.563,1.637,6.286,4.021,7.434	c1.048,0.504,2.066,0.656,2.953,0.738C52.705,47.148,55.868,47.013,57.497,45.496z"/><path fill="#472b29" d="M62.164,46.797c-0.012,0-0.024-0.002-0.036-0.005c-0.978-0.294-1.334-0.972-1.349-1.001	c-0.031-0.061-0.007-0.136,0.054-0.168c0.061-0.029,0.137-0.008,0.169,0.054c0.003,0.007,0.328,0.614,1.198,0.875	c0.065,0.021,0.104,0.09,0.084,0.156C62.268,46.762,62.218,46.797,62.164,46.797z"/><path fill="#472b29" d="M57.992,53.078c-0.037,0-0.073-0.017-0.098-0.048l-0.527-0.666c-0.043-0.054-0.034-0.132,0.021-0.175	c0.053-0.044,0.132-0.033,0.175,0.021l0.527,0.666c0.043,0.054,0.034,0.132-0.021,0.175C58.047,53.069,58.02,53.078,57.992,53.078z"/><path fill="#472b29" d="M57.207,52.082c-0.036,0-0.073-0.016-0.098-0.047l-0.254-0.316c-0.043-0.054-0.034-0.133,0.02-0.176	c0.056-0.043,0.134-0.035,0.176,0.02l0.254,0.316c0.043,0.054,0.034,0.133-0.02,0.176C57.262,52.073,57.234,52.082,57.207,52.082z"/><path fill="#472b29" d="M50.625,53.625c-0.027,0-0.055-0.009-0.078-0.027c-0.054-0.043-0.063-0.122-0.02-0.176	c0.187-0.232,0.365-0.584,0.518-1.018c0.023-0.064,0.097-0.1,0.16-0.076c0.064,0.023,0.099,0.095,0.076,0.16	c-0.164,0.465-0.353,0.832-0.559,1.09C50.698,53.609,50.661,53.625,50.625,53.625z"/><path fill="#472b29" d="M51.31,52.104c-0.011,0-0.022-0.002-0.033-0.005c-0.067-0.019-0.105-0.087-0.087-0.153	c0.042-0.151,0.063-0.248,0.063-0.25c0.016-0.067,0.086-0.107,0.148-0.096c0.067,0.015,0.11,0.081,0.096,0.148	c0,0-0.021,0.103-0.067,0.264C51.414,52.068,51.364,52.104,51.31,52.104z"/><path fill="#472b29" d="M41.859,53.708c-0.119,0-0.225-0.085-0.246-0.207c-0.024-0.136,0.066-0.266,0.203-0.289	c1.729-0.305,2.323-0.991,2.469-1.203c-0.615-2.772,0.507-4.253,1.039-4.776c-4.98-3.805-1.818-8.533-1.785-8.581	c0.062-0.09,0.171-0.128,0.276-0.099c0.104,0.03,0.176,0.123,0.18,0.231c0.164,4.534,1.605,6.123,3.879,7.217	c1.017,0.49,2.021,0.637,2.868,0.715c0.989,0.091,2.779,0.053,3.146,0.01c0.127-0.012,0.262,0.082,0.277,0.219	c0.017,0.137-0.081,0.261-0.219,0.277c-0.443,0.052-2.268,0.083-3.252-0.008c-0.892-0.083-1.95-0.237-3.038-0.762	c-2.222-1.069-3.779-2.661-4.111-6.771c-0.644,1.424-1.461,4.615,2.322,7.333c0.065,0.047,0.104,0.123,0.104,0.204	c0,0.08-0.04,0.156-0.105,0.203c-0.075,0.054-1.827,1.352-1.073,4.573c0.013,0.053,0.008,0.109-0.015,0.159	c-0.021,0.046-0.535,1.139-2.877,1.551C41.888,53.707,41.873,53.708,41.859,53.708z"/><path fill="#472b29" d="M55.395,46.913c-0.105,0-0.204-0.067-0.238-0.174c-0.042-0.131,0.03-0.272,0.162-0.314	c0.406-0.13,0.779-0.297,1.107-0.494c0.116-0.072,0.271-0.033,0.343,0.085s0.033,0.271-0.085,0.343	c-0.361,0.218-0.77,0.4-1.213,0.543C55.445,46.909,55.42,46.913,55.395,46.913z"/><path fill="#472b29" d="M38.259,59.77c-0.77,0-2.021-0.112-2.232-1.528c-0.176-1.171,0.746-1.351,1.356-1.47	c0.307-0.061,0.624-0.122,0.753-0.271c0.394-0.448,1.051-2.296,1.271-2.97c0.034-0.104,0.15-0.184,0.242-0.172	c0.315,0.008,0.611,0.001,0.886-0.012c0.121,0,0.256,0.101,0.262,0.238c0.006,0.139-0.101,0.255-0.238,0.262	c-0.231,0.01-0.479,0.013-0.734,0.014c-0.205,0.608-0.845,2.436-1.312,2.97c-0.242,0.276-0.645,0.354-1.034,0.431	c-0.698,0.137-1.058,0.238-0.958,0.905c0.156,1.043,1.019,1.119,1.952,1.101l0.188-0.002c0.603-0.017,1.59,0.001,3.026-3.143	c0.058-0.126,0.204-0.182,0.331-0.124c0.215,0.098,5.29,2.324,8.187-1.964c0.069-0.103,0.202-0.137,0.313-0.087	c0.022,0.011,2.314,1.072,4.632,0.857c2.236-0.203,2.924-1.429,2.952-1.481c0.038-0.069,0.106-0.117,0.185-0.129	c0.078-0.008,0.157,0.015,0.213,0.07l1.574,1.575l6.225-2.147c0.063-0.021,0.133-0.018,0.193,0.013	c0.06,0.03,0.105,0.084,0.126,0.148c0.004,0.013,0.398,1.191,1.21,1.145c0.465-0.033,1.119-0.514,1.315-1.148	c0.193-0.627-0.08-1.269-0.79-1.86c-0.64,0.059-3.965,0.358-4.977,0.358c-0.692,0-1.437-0.607-1.73-1.414	c-0.377-1.03,0.037-2.152,1.135-3.079c0.045-0.038,0.103-0.059,0.161-0.059h3.589c0.001,0,0.75-0.029,1.238-0.591	c0.331-0.381,0.476-0.925,0.432-1.618c-0.681-0.073-2.391-0.302-2.816-0.798c-0.16-0.188-0.207-0.417-0.257-0.66	c-0.114-0.561-0.256-1.258-2.038-1.752c-2.415-0.672-3.194,0.006-3.202,0.013c-0.049,0.045-0.115,0.066-0.183,0.067	c-0.066-0.003-0.132-0.031-0.176-0.081c-0.021-0.023-0.564-0.589-1.546-0.157c-0.772,0.336-1.484,0.35-1.918,0.307	c0.253,0.545,0.914,1.453,2.424,1.124c0.074-0.015,0.15,0.002,0.208,0.048c0.059,0.046,0.094,0.116,0.096,0.19	c0.001,0.061,0.019,1.496-1.167,2.727c-0.095,0.1-0.253,0.103-0.354,0.006c-0.099-0.096-0.102-0.254-0.006-0.354	c0.739-0.767,0.946-1.63,1.004-2.072c-2.271,0.295-2.822-1.904-2.828-1.929c-0.021-0.086,0.007-0.176,0.07-0.237	c0.064-0.061,0.153-0.087,0.241-0.06c0.01,0.002,0.959,0.26,2.028-0.209c0.978-0.426,1.648-0.089,1.946,0.132	c0.388-0.228,1.396-0.577,3.496,0.003c2.076,0.577,2.267,1.515,2.394,2.135c0.037,0.186,0.07,0.346,0.146,0.434	c0.258,0.301,1.729,0.559,2.69,0.646c0.118,0.011,0.213,0.104,0.226,0.222c0.104,0.938-0.076,1.681-0.538,2.207	c-0.636,0.728-1.565,0.757-1.604,0.758h-3.502c-1.198,1.049-1.093,1.992-0.919,2.466c0.245,0.671,0.845,1.086,1.261,1.086	c1.074,0,4.992-0.361,5.031-0.365c0.068-0.007,0.129,0.013,0.179,0.053c1.255,0.995,1.187,1.97,1.034,2.462	c-0.268,0.867-1.121,1.454-1.758,1.499c-0.94,0.079-1.436-0.813-1.629-1.253l-6.146,2.12c-0.089,0.03-0.189,0.009-0.258-0.06	l-1.473-1.474c-0.358,0.447-1.278,1.301-3.163,1.473c-2.076,0.187-4.075-0.558-4.695-0.817c-2.787,3.89-7.381,2.465-8.458,2.061	c-1.525,3.229-2.722,3.207-3.343,3.219l-0.218,0.002C38.413,59.769,38.338,59.77,38.259,59.77z"/><path fill="#472b29" d="M43.93,54.203c-0.052,0-0.1-0.032-0.118-0.083c-0.022-0.065,0.012-0.137,0.076-0.16	c1.681-0.594,1.846-1.519,1.861-1.65c-0.736-2.622,0.403-3.997,0.453-4.055c0.044-0.054,0.122-0.06,0.176-0.014	c0.053,0.044,0.059,0.123,0.015,0.176c-0.012,0.013-1.106,1.347-0.397,3.846L46,52.3c-0.001,0.048-0.048,1.195-2.028,1.896	C43.958,54.201,43.943,54.203,43.93,54.203z"/><path fill="#472b29" d="M60.512,53.84c-0.054,0-0.104-0.035-0.12-0.09c-0.02-0.065,0.019-0.136,0.085-0.155l2.496-0.738	c0.067-0.014,0.136,0.019,0.155,0.085c0.02,0.065-0.019,0.136-0.085,0.155l-2.496,0.738C60.535,53.838,60.523,53.84,60.512,53.84z"/><g><path fill="#fdfcef" d="M76.563,75.501v0.5h3v-0.5c0,0,4.242,0,5.5,0c2.485,0,4.5-2.015,4.5-4.5 c0-2.333-1.782-4.229-4.055-4.455c0.022-0.181,0.055-0.358,0.055-0.545c0-2.485-2.015-4.5-4.5-4.5 c-1.438,0-2.703,0.686-3.527,1.736c-0.14-2.636-2.302-4.736-4.973-4.736c-2.761,0-5,2.239-5,5c0,0.446,0.077,0.87,0.187,1.282 c-0.642-0.777-1.6-1.282-2.687-1.282c-1.781,0-3.234,1.335-3.455,3.055c-0.181-0.022-0.358-0.055-0.545-0.055 c-2.485,0-4.5,2.015-4.5,4.5s2.015,4.5,4.5,4.5s9.5,0,9.5,0H76.563z"/><path fill="#472b29" d="M72.563,58.001c-3.033,0-5.5,2.467-5.5,5.5c0,0.016,0,0.031,0,0.047 c-0.602-0.354-1.29-0.547-2-0.547c-1.831,0-3.411,1.261-3.858,3.005c-0.047-0.003-0.094-0.005-0.142-0.005c-2.757,0-5,2.243-5,5 s2.243,5,5,5h15.5c0.276,0,0.5-0.224,0.5-0.5c0-0.276-0.224-0.5-0.5-0.5h-15.5c-2.206,0-4-1.794-4-4s1.794-4,4-4 c0.117,0,0.23,0.017,0.343,0.032l0.141,0.019c0.021,0.003,0.041,0.004,0.062,0.004c0.246,0,0.462-0.185,0.495-0.437 c0.191-1.493,1.463-2.618,2.959-2.618c0.885,0,1.723,0.401,2.301,1.1c0.098,0.118,0.241,0.182,0.386,0.182 c0.078,0,0.156-0.018,0.228-0.056c0.209-0.107,0.314-0.346,0.254-0.573c-0.116-0.436-0.17-0.802-0.17-1.153 c0-2.481,2.019-4.5,4.5-4.5c2.381,0,4.347,1.872,4.474,4.263c0.011,0.208,0.15,0.387,0.349,0.45 c0.05,0.016,0.101,0.024,0.152,0.024c0.15,0,0.296-0.069,0.392-0.192c0.771-0.981,1.913-1.544,3.133-1.544c2.206,0,4,1.794,4,4 c0,0.117-0.017,0.23-0.032,0.343l-0.019,0.141c-0.016,0.134,0.022,0.268,0.106,0.373s0.207,0.172,0.34,0.185 c2.055,0.205,3.604,1.906,3.604,3.958c0,2.206-1.794,4-4,4h-5.5c-0.276,0-0.5,0.224-0.5,0.5s0.224,0.5,0.5,0.5h5.5 c2.757,0,5-2.243,5-5c0-2.397-1.689-4.413-4.003-4.877c0.002-0.041,0.003-0.082,0.003-0.123c0-2.757-2.243-5-5-5 c-1.176,0-2.293,0.416-3.183,1.164C77.282,59.761,75.118,58.001,72.563,58.001L72.563,58.001z"/><path fill="#472b29" d="M71.063,65.001c-1.403,0-2.609,0.999-2.913,2.341c-0.367-0.222-0.786-0.341-1.212-0.341 c-1.202,0-2.198,0.897-2.353,2.068c-0.203-0.045-0.396-0.068-0.585-0.068c-1.529,0-2.811,1.2-2.918,2.732 c-0.009,0.138,0.094,0.257,0.232,0.267c0.006,0,0.012,0,0.018,0c0.13,0,0.24-0.101,0.249-0.232C61.67,70.497,62.732,69.5,64,69.5 c0.229,0,0.47,0.042,0.738,0.127c0.022,0.007,0.045,0.01,0.067,0.01c0.055,0,0.11-0.02,0.156-0.054 c0.064-0.047,0.102-0.129,0.102-0.209c0-1.034,0.841-1.875,1.875-1.875c0.447,0,0.885,0.168,1.231,0.473 c0.047,0.041,0.106,0.063,0.165,0.063c0.032,0,0.063-0.006,0.093-0.019c0.088-0.035,0.148-0.117,0.155-0.212 c0.102-1.292,1.191-2.305,2.479-2.305c0.208,0,0.425,0.034,0.682,0.107c0.023,0.007,0.047,0.01,0.07,0.01 c0.109,0,0.207-0.073,0.239-0.182c0.038-0.133-0.039-0.271-0.172-0.309C71.58,65.041,71.319,65.001,71.063,65.001L71.063,65.001z"/><path fill="#472b29" d="M84.946,66.501c-1.326,0-2.508,0.897-2.874,2.182c-0.038,0.133,0.039,0.271,0.172,0.309 c0.023,0.007,0.046,0.01,0.068,0.01c0.109,0,0.209-0.072,0.24-0.182c0.305-1.071,1.289-1.818,2.393-1.818 c0.117,0,0.23,0.014,0.342,0.029c0.012,0.002,0.023,0.003,0.035,0.003c0.121,0,0.229-0.092,0.246-0.217 c0.019-0.137-0.077-0.263-0.214-0.281C85.221,66.517,85.086,66.501,84.946,66.501L84.946,66.501z"/></g></svg>